<svg width="88" height="52" viewBox="0 0 88 52" fill="none" xmlns="http://www.w3.org/2000/svg">
<path d="M13.8598 23.1327L17.5124 18.5583L13.8598 23.1327ZM15.9685 18.4754L13.8598 23.1328L10.2889 18.1555L15.9685 18.4754ZM25.9701 10.143C25.8645 9.72443 25.7589 9.30584 25.6533 8.88727L25.9701 10.143ZM25.1781 7.00366L23.7413 1.30811L15.9685 18.4754L28.2355 19.1233L26.4452 12.0266L25.1781 7.00366ZM1.30811 17.7224L23.7413 1.30804L10.2889 18.1554L1.30811 17.7224Z" stroke="black" stroke-width="0.616336" stroke-linecap="round" stroke-linejoin="round"/>
<path d="M37.1331 6.10822C37.1331 9.21266 39.3345 11.3011 41.9874 11.3011C43.977 11.3011 45.0918 10.0876 45.0918 10.0876H45.12C45.12 10.0876 45.1059 10.2992 45.1059 10.5109V11.1318H46.3477V7.11011C46.3477 6.47511 46.0796 6.207 45.4446 6.207H44.1322V7.42055H44.739C44.9366 7.42055 45.0494 7.53344 45.0494 7.731V8.73288C45.0494 8.73288 43.9911 9.97466 42.2131 9.97466C40.1952 9.97466 38.6007 8.42244 38.6007 6.10822C38.6007 3.89277 40.1952 2.29822 42.1849 2.29822C43.8359 2.29822 44.9083 3.25777 44.9083 3.25777L45.7127 2.22766C45.7127 2.22766 44.5414 1 42.1567 1C39.3062 1 37.1331 3.24366 37.1331 6.10822H37.1331Z" fill="black"/>
<path d="M48.2009 10.2287C48.2009 10.8637 48.469 11.1318 49.104 11.1318H50.4586V9.96054H49.8801C49.6825 9.96054 49.5696 9.86174 49.5696 9.6501V2.07243C49.5696 1.43743 49.3015 1.16931 48.6665 1.16931H47.3119V2.34053H47.8904C48.088 2.34053 48.2009 2.43934 48.2009 2.65099V10.2287Z" fill="black"/>
<path d="M51.3135 7.54753C51.3135 9.72064 53.0209 11.3011 55.1517 11.3011C57.2825 11.3011 59.004 9.72064 59.004 7.54753C59.004 5.38853 57.2825 3.8222 55.1517 3.8222C53.0209 3.8222 51.3135 5.38853 51.3135 7.54753V7.54753ZM52.7105 7.54753C52.7105 6.06586 53.8111 5.00754 55.1517 5.00754C56.5064 5.00754 57.607 6.06586 57.607 7.54753C57.607 9.04331 56.5064 10.1158 55.1517 10.1158C53.8111 10.1158 52.7105 9.04331 52.7105 7.54753Z" fill="black"/>
<path d="M60.5199 11.1318H61.8322V10.6379C61.8322 10.3274 61.804 10.1016 61.804 10.1016H61.8322C61.8322 10.1016 62.4813 11.3011 64.0759 11.3011C65.9526 11.3011 67.3214 9.83354 67.3214 7.56165C67.3214 5.34621 66.1078 3.8222 64.1887 3.8222C62.5095 3.8222 61.8886 4.99342 61.8886 4.99342H61.8604C61.8604 4.99342 61.8886 4.73943 61.8886 4.40076V2.07243C61.8886 1.43743 61.6205 1.16931 60.9855 1.16931H59.6309V2.34053H60.2094C60.407 2.34053 60.5199 2.43934 60.5199 2.65099V11.1318ZM61.8604 7.58986C61.8604 5.76953 62.8482 5.02165 63.9065 5.02165C65.106 5.02165 65.9385 6.02354 65.9385 7.57576C65.9385 9.19854 65.0072 10.1299 63.8783 10.1299C62.5236 10.1299 61.8604 8.85986 61.8604 7.58986V7.58986Z" fill="black"/>
<path d="M68.2775 9.12799C68.2775 10.5532 69.4769 11.3011 70.7046 11.3011C72.412 11.3011 72.9765 9.88998 72.9765 9.88998H73.0047C73.0047 9.88998 72.9765 10.0734 72.9765 10.3133C72.9765 10.8213 73.2305 11.1318 73.8655 11.1318H75.1496V9.96054H74.571C74.3735 9.96054 74.2606 9.86174 74.2606 9.6501V6.61621C74.2606 5.03576 73.6397 3.8222 71.3255 3.8222C70.634 3.8222 68.856 3.99153 68.856 5.16275V5.86832H70.1401V5.45909C70.1401 4.99342 70.9727 4.90875 71.3114 4.90875C72.4261 4.90875 72.8918 5.36032 72.8918 6.61621V6.68671H72.5814C71.3819 6.68671 68.2775 6.82781 68.2775 9.12793V9.12799ZM69.6604 9.05739C69.6604 7.74506 71.523 7.6886 72.5531 7.6886H72.9059V7.9285C72.9059 8.98683 72.158 10.2004 71.0009 10.2004C70.0978 10.2004 69.6604 9.63595 69.6604 9.05739V9.05739Z" fill="black"/>
<path d="M41.1847 28.234C41.1847 28.869 41.4528 29.1371 42.0878 29.1371H46.3493C46.9843 29.1371 47.2525 28.869 47.2525 28.234V26.9781H45.9683V27.6131C45.9683 27.8106 45.8555 27.9235 45.6579 27.9235H42.9062C42.7087 27.9235 42.5958 27.8106 42.5958 27.6131V20.0777C42.5958 19.4427 42.3277 19.1746 41.6927 19.1746H40.2675V20.3882H40.8742C41.0718 20.3882 41.1847 20.487 41.1847 20.6986V28.234Z" fill="black"/>
<path d="M47.9152 27.1333C47.9152 28.5585 49.1147 29.3064 50.3423 29.3064C52.0498 29.3064 52.6142 27.8953 52.6142 27.8953H52.6424C52.6424 27.8953 52.6142 28.0787 52.6142 28.3186C52.6142 28.8266 52.8682 29.1371 53.5032 29.1371H54.7873V27.9659H54.2088C54.0112 27.9659 53.8983 27.8671 53.8983 27.6554V24.6215C53.8983 23.0411 53.2774 21.8275 50.9632 21.8275C50.2718 21.8275 48.4938 21.9969 48.4938 23.1681V23.8736H49.7779V23.4644C49.7779 22.9988 50.6104 22.9141 50.9491 22.9141C52.0639 22.9141 52.5296 23.3656 52.5296 24.6215V24.6921H52.2191C51.0197 24.6921 47.9152 24.8332 47.9152 27.1333V27.1333ZM49.2981 27.0627C49.2981 25.7504 51.1608 25.6939 52.1909 25.6939H52.5437V25.9338C52.5437 26.9922 51.7958 28.2057 50.6387 28.2057C49.7356 28.2057 49.2981 27.6413 49.2981 27.0627Z" fill="black"/>
<path d="M56.282 29.1371H57.6508V25.7928C57.6508 25.44 57.679 25.1154 57.7778 24.8332C58.06 23.8031 58.9349 23.0834 60.0356 23.0834C61.1786 23.0834 61.3761 23.8736 61.3761 24.8755V28.234C61.3761 28.869 61.6442 29.1371 62.2792 29.1371H63.6339V27.9659H63.0553C62.8578 27.9659 62.7449 27.8671 62.7449 27.6554V24.5651C62.7449 22.7447 61.9829 21.8275 60.2896 21.8275C58.7373 21.8275 57.8907 22.8435 57.6085 23.4644H57.5802C57.5802 23.4644 57.6085 23.281 57.6085 23.0552V22.7871C57.6085 22.265 57.3121 21.9969 56.7053 21.9969H55.393V23.1681H55.9716C56.1691 23.1681 56.282 23.2669 56.282 23.4785V29.1371Z" fill="black"/>
<path d="M64.4517 25.3976C64.4517 27.4579 65.6652 29.0524 67.6408 29.0524C68.685 29.0524 69.3482 28.6573 69.7716 27.9659H69.7998C69.7998 27.9659 69.7716 28.1916 69.7716 28.4174V28.8972C69.7716 30.3365 68.7556 30.8869 67.5138 30.8869C66.4414 30.8869 65.5665 30.4071 65.5665 30.4071L65.1008 31.5077C65.8063 31.8605 66.6812 32.1004 67.542 32.1004C69.3482 32.1004 71.1404 31.1973 71.1404 28.8407V23.4503C71.1404 23.2669 71.2674 23.1681 71.4508 23.1681H72.0152V21.9969H70.6888C70.1243 21.9969 69.8986 22.2932 69.8986 22.7165C69.8986 22.8294 69.8986 22.9423 69.8986 22.9423H69.8704C69.8704 22.9423 69.3624 21.8275 67.5844 21.8275C65.5947 21.8275 64.4517 23.3515 64.4517 25.3976H64.4517ZM67.9089 27.8671C66.6248 27.8671 65.8487 26.8511 65.8487 25.3694C65.8487 23.916 66.5542 23.0129 67.796 23.0129C68.8967 23.0129 69.8139 23.5491 69.8139 25.4118C69.8139 27.2744 68.8967 27.8671 67.9089 27.8671Z" fill="black"/>
<path d="M9.43634 26.6625C7.57967 29.6901 5.72297 32.7178 6.45369 35.8914C7.18441 39.0649 10.5025 42.383 14.642 43.5433C18.7815 44.7035 23.7418 43.7057 27.0916 41.7003C30.4413 39.6949 32.1807 36.6822 31.859 34.4881C31.5373 32.2941 29.1547 30.9185 26.4609 30.6332C23.7672 30.3478 20.7628 31.1529 19.8747 33.8492C18.9865 36.5456 20.2155 41.1321 22.7935 44.8395C25.3716 48.5468 29.298 51.3737 34.6711 49.5427C40.0441 47.7117 46.8633 41.223 51.5355 40.9857C56.2077 40.7485 58.7331 46.7624 63.8708 48.116C69.0086 49.4695 76.7454 46.1674 81.2318 42.401C85.7183 38.6346 86.9266 34.4273 86.3927 30.5948C85.8587 26.7622 83.5808 23.3106 81.3029 19.8591" stroke="black" stroke-width="0.5" stroke-dasharray="6 6"/>
</svg>
