<svg width="50" height="50" viewBox="0 0 50 50" fill="none" xmlns="http://www.w3.org/2000/svg">
<g clip-path="url(#clip0)">
<path d="M13.8598 23.1327L17.5124 18.5583L13.8598 23.1327ZM15.9685 18.4754L13.8598 23.1328L10.2889 18.1554L15.9685 18.4754ZM25.9701 10.143C25.8645 9.72442 25.7589 9.30583 25.6533 8.88726L25.9701 10.143ZM25.1781 7.00367L23.7413 1.30811L15.9685 18.4754L28.2355 19.1233L26.4452 12.0266L25.1781 7.00367ZM1.30811 17.7224L23.7413 1.30804L10.2889 18.1554L1.30811 17.7224Z" stroke="black" stroke-width="0.616336" stroke-linecap="round" stroke-linejoin="round"/>
<path d="M9.43634 26.6625C7.57967 29.6901 5.72297 32.7178 6.45369 35.8914C7.18441 39.0649 10.5025 42.383 14.642 43.5433C18.7815 44.7035 23.7418 43.7057 27.0916 41.7003C30.4413 39.6949 32.1807 36.6822 31.859 34.4881C31.5373 32.2941 29.1547 30.9185 26.4609 30.6332C23.7672 30.3478 20.7628 31.1529 19.8747 33.8492C18.9865 36.5456 20.2155 41.1321 23.3668 44.3985C26.5182 47.6649 31.5912 49.6099 36.9642 47.7788C42.3372 45.9478 48.0098 40.341 48.7137 33.861C49.4176 27.381 45.1531 20.0279 40.8885 12.6744" stroke="black" stroke-width="0.5" stroke-dasharray="6 6"/>
</g>
<defs>
<clipPath id="clip0">
<rect width="49.8633" height="49.4847" fill="white"/>
</clipPath>
</defs>
</svg>
